<?xml version="1.0" standalone="no"?>
<!DOCTYPE svg PUBLIC "-//W3C//DTD SVG 20010904//EN"
 "http://www.w3.org/TR/2001/REC-SVG-20010904/DTD/svg10.dtd">
<svg version="1.0" xmlns="http://www.w3.org/2000/svg"
 width="426.000000pt" height="836.000000pt" viewBox="0 0 426.000000 836.000000"
 preserveAspectRatio="xMidYMid meet">

<g transform="translate(0.000000,836.000000) scale(0.100000,-0.100000)"
fill="#000000" stroke="none">
<path d="M2030 5759 c-47 -33 -105 -72 -128 -87 -24 -15 -66 -43 -92 -62 -27
-19 -94 -66 -149 -105 -108 -75 -111 -80 -91 -154 5 -20 24 -94 40 -166 17
-71 51 -211 75 -310 24 -99 58 -238 75 -310 77 -323 124 -510 130 -515 5 -5
34 -116 100 -395 23 -93 50 -206 62 -250 11 -44 24 -100 29 -125 11 -57 46
-190 52 -196 6 -6 22 40 36 101 6 28 31 138 56 245 54 235 81 349 105 455 10
44 35 150 55 235 46 195 47 203 145 625 44 193 85 366 90 385 5 19 18 78 30
130 11 52 26 112 31 134 8 30 8 42 -3 51 -7 7 -89 66 -183 131 -93 64 -211
146 -261 181 -51 34 -98 63 -105 62 -8 0 -52 -27 -99 -60z"/>
<path d="M334 2279 c3 -17 26 -95 50 -173 36 -113 126 -403 186 -601 5 -16 18
-57 29 -90 23 -73 106 -338 131 -420 10 -33 27 -87 37 -120 17 -58 19 -60 53
-60 l34 0 92 235 c82 210 145 372 338 872 32 81 61 150 66 153 15 9 28 -20 83
-180 58 -167 156 -448 252 -720 31 -88 70 -200 87 -250 36 -106 42 -115 78
-115 31 0 41 10 57 60 13 38 215 693 264 855 17 55 39 125 49 155 10 30 35
109 55 175 21 66 46 147 56 179 24 76 24 76 -10 76 -34 0 -35 -3 -86 -180 -41
-142 -58 -196 -110 -365 -20 -66 -45 -147 -55 -180 -10 -33 -35 -114 -55 -180
-20 -66 -54 -178 -76 -249 -21 -72 -43 -132 -47 -135 -5 -3 -14 -27 -22 -54
-15 -56 -25 -65 -41 -36 -12 23 -17 36 -142 399 -47 135 -122 351 -167 480
-195 559 -170 500 -206 500 -29 0 -29 -2 -4 -74 23 -68 47 8 -199 -621 -259
-661 -272 -690 -291 -690 -8 0 -23 30 -36 70 -29 94 -62 201 -75 250 -6 22
-15 51 -19 65 -5 14 -25 79 -45 145 -20 66 -49 161 -64 210 -16 50 -38 122
-49 160 -12 39 -44 144 -73 235 -28 91 -55 179 -59 196 -11 46 -18 54 -47 54
-23 0 -25 -3 -19 -31z"/>
<path d="M2727 2303 c-2 -4 23 -78 55 -163 33 -85 73 -189 88 -230 15 -41 87
-230 160 -420 128 -334 160 -418 220 -583 16 -42 32 -82 35 -87 9 -14 61 -12
72 3 6 6 33 73 61 147 28 74 71 187 95 250 151 394 275 720 327 860 15 41 39
104 54 139 33 82 33 93 -1 89 -26 -3 -32 -14 -105 -208 -43 -113 -105 -277
-139 -365 -33 -88 -74 -195 -90 -237 -16 -43 -42 -113 -58 -155 -17 -43 -55
-145 -86 -228 -87 -234 -92 -242 -113 -187 -6 15 -26 68 -45 117 -19 50 -44
115 -55 145 -11 30 -28 75 -37 100 -10 25 -30 79 -45 120 -15 41 -74 197 -130
345 -56 149 -115 304 -130 345 -76 205 -76 205 -103 208 -14 2 -27 0 -30 -5z"/>
</g>
</svg>
